<svg width="57" height="54" viewBox="0 0 57 54" fill="none" xmlns="http://www.w3.org/2000/svg">
<path fill-rule="evenodd" clip-rule="evenodd" d="M25.4165 14.1999L2.47607 38.4638C-0.959286 42.0843 -0.796912 47.6284 2.81975 51.0674C6.44596 54.5155 12.2765 54.6608 16.084 51.4033L41.6009 29.5894C45.5134 29.6166 49.3879 28.2555 52.2507 25.5061C58.1671 19.8983 57.9763 10.525 51.6781 4.58149C45.4659 -1.3529 35.608 -1.5253 29.7106 4.08242C26.8192 6.83184 25.3878 10.4796 25.4165 14.1999ZM37.259 26.6947L12.6293 47.7554C10.8639 49.2617 8.1538 49.1983 6.47429 47.5922C4.79478 45.9952 4.72843 43.4272 6.31251 41.7485C12.6775 35.0247 24.0429 23.0017 28.4612 18.3286L37.259 26.6947ZM42.4121 24.6531L30.6082 13.4286C30.7609 11.2599 31.6673 9.17282 33.3659 7.55765C37.307 3.81009 43.8818 4.09139 48.0519 8.05672C52.2507 12.0221 52.537 18.2831 48.6245 22.0307C46.8877 23.6368 44.6928 24.5079 42.4121 24.6531Z" fill="black"/>
</svg>
